<svg xmlns="http://www.w3.org/2000/svg" enable-background="new 0 0 512 512" version="1.0" viewBox="0 0 512 512"><path fill="none" stroke="#7e3cf9" stroke-linecap="round" stroke-linejoin="round" stroke-miterlimit="10" stroke-width="15" d="
			M431.781,287.242V43.68c0-7.448-6.038-13.486-13.486-13.486H91.806c-7.448,0-13.486,6.038-13.486,13.486v243.561" class="colorStroke474747 svgStroke"/><path fill="none" stroke="#7e3cf9" stroke-linecap="round" stroke-linejoin="round" stroke-miterlimit="10" stroke-width="15" d="M221.348 363.281H28.307c-10.173 0-15.205-12.356-7.926-19.463l57.939-56.577h178.691M431.781 287.242l57.939 56.577c7.278 7.107 2.247 19.463-7.926 19.463h-15.772" class="colorStroke474747 svgStroke"/><line x1="166.844" x2="221.348" y1="338.779" y2="338.779" fill="none" stroke="#7e3cf9" stroke-linecap="round" stroke-linejoin="round" stroke-miterlimit="10" stroke-width="15" class="colorStroke474747 svgStroke"/><path fill="none" stroke="#7e3cf9" stroke-linecap="round" stroke-linejoin="round" stroke-miterlimit="10" stroke-width="15" d="
			M358.17,385.851c-12.565-28.824,18.357-59.687,18.357-59.687l-22.361-40.67c-7.899-14.367-3.757-32.375,9.627-41.846l0,0
			l60.129,98.655c5.45,8.943,6.948,19.745,4.135,29.833l-4.382,15.718c-2.693,9.66-1.439,19.994,3.488,28.729l20.519,36.383" class="colorStroke474747 svgStroke"/><path fill="none" stroke="#7e3cf9" stroke-linecap="round" stroke-linejoin="round" stroke-miterlimit="10" stroke-width="15" d="M359.415 295.74L291.74 176.522l0 0c-14.918 9.403-19.833 28.858-11.17 44.217l51.118 90.639M293.71 309.135l15.982 28.339c4.318 7.657 14.025 10.362 21.682 6.044l0 0c7.657-4.318 10.362-14.025 6.044-21.682l-15.982-28.339c-4.318-7.657-14.025-10.362-21.682-6.044l0 0C292.098 291.771 289.392 301.479 293.71 309.135zM273.567 338.397l15.982 28.339c4.318 7.657 14.025 10.362 21.682 6.044l0 0c7.657-4.318 10.362-14.025 6.044-21.682l-15.982-28.339c-4.318-7.657-14.025-10.362-21.682-6.044l0 0C271.956 321.033 269.249 330.74 273.567 338.397z" class="colorStroke474747 svgStroke"/><path fill="none" stroke="#7e3cf9" stroke-linecap="round" stroke-linejoin="round" stroke-miterlimit="10" stroke-width="15" d="M272.237 336.812c-3.056-.247-6.215.385-9.087 2.004l0 0c-7.657 4.318-10.362 14.025-6.044 21.682l15.982 28.339c4.318 7.657 14.025 10.362 21.682 6.044l0 0c6.888-3.885 9.77-12.131 7.135-19.321M358.727 482.655l-20.73-36.756c-4.894-8.678-12.463-15.541-21.579-19.565l0 0c-9.114-4.024-16.683-10.887-21.579-19.565l-5.103-9.049" class="colorStroke474747 svgStroke"/><g class="color000000 svgShape"><polyline fill="none" stroke="#474747" stroke-linecap="round" stroke-linejoin="round" stroke-miterlimit="10" stroke-width="15" points="188.57 119.252 188.57 136.04 132.699 136.04 132.699 80.17 158.523 80.17"/><polyline fill="none" stroke="#474747" stroke-linecap="round" stroke-linejoin="round" stroke-miterlimit="10" stroke-width="15" points="156.655 104.542 163.684 111.572 191.34 83.916"/><line x1="232.491" x2="384.971" y1="91.481" y2="91.481" fill="none" stroke="#7e3cf9" stroke-linecap="round" stroke-linejoin="round" stroke-miterlimit="10" stroke-width="15" class="colorStroke474747 svgStroke"/><line x1="232.491" x2="301.543" y1="125.612" y2="125.612" fill="none" stroke="#7e3cf9" stroke-linecap="round" stroke-linejoin="round" stroke-miterlimit="10" stroke-width="15" class="colorStroke474747 svgStroke"/><rect width="55.87" height="55.87" x="132.699" y="181.396" fill="none" stroke="#7e3cf9" stroke-linecap="round" stroke-linejoin="round" stroke-miterlimit="10" stroke-width="15" class="colorStroke474747 svgStroke"/><line x1="332.986" x2="384.971" y1="192.707" y2="192.707" fill="none" stroke="#7e3cf9" stroke-linecap="round" stroke-linejoin="round" stroke-miterlimit="10" stroke-width="15" class="colorStroke474747 svgStroke"/><line x1="232.491" x2="250.05" y1="192.707" y2="192.707" fill="none" stroke="#7e3cf9" stroke-linecap="round" stroke-linejoin="round" stroke-miterlimit="10" stroke-width="15" class="colorStroke474747 svgStroke"/><line x1="232.491" x2="255.05" y1="226.838" y2="226.838" fill="none" stroke="#7e3cf9" stroke-linecap="round" stroke-linejoin="round" stroke-miterlimit="10" stroke-width="15" class="colorStroke474747 svgStroke"/></g></svg>