<svg xmlns="http://www.w3.org/2000/svg" enable-background="new 0 0 48 48" viewBox="0 0 48 48"><path fill="#7e3cf9" d="M18,6h4c0.552,0,1-0.448,1-1V1c0-0.552-0.448-1-1-1h-4c-0.552,0-1,0.448-1,1v4C17,5.552,17.448,6,18,6z M19,2h2v2h-2V2z
	 M34,6h4c0.552,0,1-0.448,1-1V1c0-0.552-0.448-1-1-1h-4c-0.552,0-1,0.448-1,1v4C33,5.552,33.448,6,34,6z M35,2h2v2h-2V2z M26,6h4
	c0.552,0,1-0.448,1-1V1c0-0.552-0.448-1-1-1h-4c-0.552,0-1,0.448-1,1v4C25,5.552,25.448,6,26,6z M27,2h2v2h-2V2z M34,14h4
	c0.552,0,1-0.448,1-1V9c0-0.552-0.448-1-1-1h-4c-0.552,0-1,0.448-1,1v4C33,13.552,33.448,14,34,14z M35,10h2v2h-2V10z M46,8h-4
	c-0.552,0-1,0.448-1,1v4c0,0.552,0.448,1,1,1h4c0.552,0,1-0.448,1-1V9C47,8.448,46.552,8,46,8z M45,12h-2v-2h2V12z M46.707,36.292
	c0.391,0.391,0.391,1.023,0,1.414l-4,4c-0.391,0.391-1.023,0.391-1.414,0l-4-4c-0.391-0.391-0.391-1.023,0-1.414
	s1.023-0.391,1.414,0L41,38.585V23c0-0.552,0.448-1,1-1s1,0.448,1,1v15.585l2.293-2.293C45.684,35.902,46.316,35.902,46.707,36.292z
	 M46,0h-4c-0.552,0-1,0.448-1,1v4c0,0.552,0.448,1,1,1h4c0.552,0,1-0.448,1-1V1C47,0.448,46.552,0,46,0z M45,4h-2V2h2V4z M34,16H6
	c-0.552,0-1,0.448-1,1v18c0,0.552,0.448,1,1,1h7v3.469c0,0.522,0.137,1.037,0.396,1.488l3.736,6.539C17.31,47.808,17.641,48,18,48
	h12c0.409,0,0.777-0.249,0.929-0.628l1.856-4.642C32.928,42.375,33,42,33,41.615V36h1c0.552,0,1-0.448,1-1V17
	C35,16.448,34.552,16,34,16z M31,41.615c0,0.128-0.024,0.252-0.072,0.371L29.323,46H18.581l-3.449-6.036
	C15.045,39.814,15,39.643,15,39.469v-5.233c0-0.381,0.212-0.724,0.553-0.894L17,32.618V36c0,0.552,0.448,1,1,1s1-0.448,1-1V23
	c0-0.551,0.449-1,1-1s1,0.449,1,1v7c0,0.552,0.448,1,1,1h8c0.551,0,1,0.449,1,1V41.615z M33,32c0-1.654-1.346-3-3-3h-7v-6
	c0-1.654-1.346-3-3-3s-3,1.346-3,3v7.382l-2.342,1.171c-0.952,0.476-1.561,1.401-1.642,2.447H7V18h26V32z M7,13V9
	c0-0.552-0.448-1-1-1H2C1.448,8,1,8.448,1,9v4c0,0.552,0.448,1,1,1h4C6.552,14,7,13.552,7,13z M5,12H3v-2h2V12z M10,6h4
	c0.552,0,1-0.448,1-1V1c0-0.552-0.448-1-1-1h-4C9.448,0,9,0.448,9,1v4C9,5.552,9.448,6,10,6z M11,2h2v2h-2V2z M10,14h20
	c0.552,0,1-0.448,1-1V9c0-0.552-0.448-1-1-1H10C9.448,8,9,8.448,9,9v4C9,13.552,9.448,14,10,14z M11,10h18v2H11V10z M2,6h4
	c0.552,0,1-0.448,1-1V1c0-0.552-0.448-1-1-1H2C1.448,0,1,0.448,1,1v4C1,5.552,1.448,6,2,6z M3,2h2v2H3V2z" class="color000000 svgShape"/></svg>