<svg xmlns="http://www.w3.org/2000/svg" viewBox="0 0 512 512"><path fill="none" stroke="#f68a03" stroke-linecap="round" stroke-linejoin="round" stroke-width="5.51" d="m118.36,92.85c-6.55.37-12.5,5.58-13.7,12.07,0,0,.06,261.73.82,264.03,1.07,7.76,7.35,17.93,14.97,19.54,0,0,302.97.19,303.1,0,7.69,1.02,15.74,1.42,22.99-1.31,7.27-2.75,13.57-9.33,13.86-17.13,0,0-1.46-261.13-1.59-264.28-.46-4.91.16-7.04-2.09-9.6-2.26-2.56-5.88-3.9-9.22-3.31H118.36Z" class="colorStroke000000 svgStroke"/><path fill="none" stroke="#f68a03" stroke-linecap="round" stroke-linejoin="round" stroke-width="5.51" d="m89.66,352.02c-.66,7.36-1.32,14.8-.34,22.13.98,7.33,3.76,14.65,9.07,19.8,5.18,5.02,12.35,7.57,19.5,8.42,7.17.85,57.98,1.1,65.15.4" class="colorStroke000000 svgStroke"/><polygon fill="none" stroke="#f68a03" stroke-linecap="round" stroke-linejoin="round" stroke-width="5.51" points="230.99 249.04 230.99 311.76 285.34 278.86 230.99 249.04" class="colorStroke000000 svgStroke"/><path fill="none" stroke="#f68a03" stroke-linecap="round" stroke-linejoin="round" stroke-width="5.51" d="m349.29,334.42v11.49c0,5.45-4.41,9.86-9.85,9.86h-168.85c-5.45,0-9.86-4.41-9.86-9.86v-126.94c0-5.44,4.41-9.86,9.86-9.86h168.85c5.44,0,9.85,4.42,9.85,9.86v115.45Z" class="colorStroke000000 svgStroke"/><path fill="none" stroke="#f68a03" stroke-linecap="round" stroke-linejoin="round" stroke-width="5.51" d="m183.92,209.11v-11.49c0-5.44,4.41-9.85,9.85-9.85h168.85c5.45,0,9.86,4.41,9.86,9.85v126.95c0,5.44-4.41,9.85-9.86,9.85h-13.33" class="colorStroke000000 svgStroke"/><path fill="none" stroke="#f68a03" stroke-linecap="round" stroke-linejoin="round" stroke-width="5.51" d="m207.1,187.77v-11.49c0-5.45,4.41-9.86,9.86-9.86h168.85c5.44,0,9.86,4.41,9.86,9.86v126.94c0,5.44-4.42,9.85-9.86,9.85h-13.33" class="colorStroke000000 svgStroke"/><line x1="476.22" x2="488.91" y1="99.55" y2="98.55" fill="none" stroke="#f68a03" stroke-linecap="round" stroke-linejoin="round" stroke-width="5.51" class="colorStroke000000 svgStroke"/><line x1="468.69" x2="482.94" y1="84.03" y2="68.2" fill="none" stroke="#f68a03" stroke-linecap="round" stroke-linejoin="round" stroke-width="5.51" class="colorStroke000000 svgStroke"/><line x1="453.72" x2="452.63" y1="80.31" y2="66" fill="none" stroke="#f68a03" stroke-linecap="round" stroke-linejoin="round" stroke-width="5.51" class="colorStroke000000 svgStroke"/><path fill="none" stroke="#f68a03" stroke-linecap="round" stroke-linejoin="round" stroke-width="5.51" d="M151.3 116.14c0 4.28-3.47 7.75-7.75 7.75s-7.75-3.47-7.75-7.75 3.47-7.75 7.75-7.75 7.75 3.47 7.75 7.75zM187.9 116.14c0 4.28-3.47 7.75-7.75 7.75s-7.74-3.47-7.74-7.75 3.47-7.75 7.74-7.75 7.75 3.47 7.75 7.75zM224.51 116.14c0 4.28-3.47 7.75-7.75 7.75s-7.75-3.47-7.75-7.75 3.47-7.75 7.75-7.75 7.75 3.47 7.75 7.75z" class="colorStroke000000 svgStroke"/></svg>