<svg xmlns="http://www.w3.org/2000/svg" enable-background="new 0 0 76 76" viewBox="0 0 76 76"><path fill="#358ff7" d="M58.9470329,5.25H26.4831638c-1.125,0-2.0410156,0.9160156-2.0410156,2.0415039v11.8920898
		c0,1.1254883,0.9160156,2.0415039,2.0410156,2.0415039l13.8505878-0.0239258l2.4755859,3.3920898
		c0.4524879,0.6243458,1.3913269,0.579668,1.7841797-0.0688477l1.9892578-3.2993164h12.3642578
		c1.1259766,0,2.0419922-0.9160156,2.0419922-2.0415039V7.2915039C60.9890251,6.1660156,60.0730095,5.25,58.9470329,5.25z
		 M59.4890251,19.1835938c0,0.2988281-0.2431641,0.5415039-0.5419922,0.5415039H46.5827751
		c-0.4980469,0-0.9667969,0.2646484-1.2226563,0.6865234l-1.7119141,2.7866211l-2.0996094-2.8769531
		c-0.2685547-0.3730469-0.703125-0.5961914-1.1640625-0.5961914H26.4831638c-0.2978516,0-0.5410156-0.2426758-0.5410156-0.5415039
		V7.2915039c0-0.2983398,0.2431641-0.5415039,0.5410156-0.5415039h32.4638672c0.2988281,0,0.5419922,0.2431641,0.5419922,0.5415039
		V19.1835938z" class="color000000 svgShape"/><path fill="#358ff7" d="M35.1130486 11.019043h-1.8964844l-.5859375-1.8032227c-.2221756-.6893902-1.2037716-.6893749-1.4257832-.0004883l-.5869141 1.8037109h-1.8964844c-.7262459 0-1.025732.9331303-.4404297 1.3569336l1.5341797 1.1147461-.5859375 1.8032227c-.2255116.692956.5709915 1.2625771 1.1533203.8388672l1.5351563-1.1147461 1.533205 1.1147461c.590477.4264565 1.3777924-.1521072 1.1542969-.8388672l-.5859375-1.8032227 1.5341797-1.1147461C36.1392136 11.9518614 35.8385696 11.019043 35.1130486 11.019043zM32.6970329 12.597168c-.2636719.190918-.3730469.5297852-.2724609.8388672l.0400391.1254883-.1054688-.0776367c-.2636719-.1904297-.6201191-.1904297-.8818378 0L31.368906 13.5625l.0410156-.1264648c.1005859-.309082-.0087891-.6479492-.2724609-.8388672l-.1074219-.078125h.1328125c.3251953 0 .6132813-.2089844.7128906-.5180664l.0419922-.1264648.0410156.1259766c.0996113.309082.3876972.5185547.7128925.5185547h.1328125L32.6970329 12.597168zM45.9109001 11.019043h-1.8964844l-.5859375-1.8032227c-.2221756-.6893902-1.2037697-.6893749-1.4257813-.0004883l-.5869141 1.8037109h-1.8964844c-.7262497 0-1.0257339.9331303-.4404297 1.3569336l1.5341797 1.1147461-.5859375 1.8032227c-.2255135.692956.5709915 1.2625771 1.1533203.8388672l1.5351563-1.1147461 1.5332031 1.1147461c.5832596.4212437 1.3795471-.146225 1.1542969-.8383789l-.5849609-1.8037109 1.5341797-1.1147461C46.9371719 11.9498291 46.635746 11.019043 45.9109001 11.019043zM43.4948845 12.597168c-.2626953.1914063-.3720703.5297852-.2714844.8383789L43.2644157 13.5625l-.1074219-.0786133c-.2636719-.1904297-.6201172-.1904297-.8818359 0L42.1667595 13.5625l.0410156-.1264648c.1005859-.309082-.0087891-.6479492-.2724609-.8388672l-.1074219-.078125h.1328125c.3251953 0 .6132813-.2089844.7128906-.5180664l.0419922-.1264648.0410156.1259766c.0996094.309082.3876953.5185547.7128906.5185547h.1337891L43.4948845 12.597168zM56.7087517 11.019043h-1.8964844l-.5859375-1.8032227c-.2221756-.6893902-1.2037697-.6893749-1.4257813-.0004883l-.5869141 1.8037109h-1.8964844c-.7262497 0-1.0257339.9331303-.4404297 1.3569336l1.5341797 1.1147461-.5859375 1.8032227c-.2255135.692956.5709915 1.2625771 1.1533203.8388672l1.5351563-1.1147461 1.5332031 1.1147461c.5832596.4212437 1.3795471-.146225 1.1542969-.8383789l-.5849609-1.8037109 1.5341797-1.1147461C57.7350235 11.9498291 57.4335976 11.019043 56.7087517 11.019043zM54.2927361 12.597168c-.2626953.1914063-.3720703.5297852-.2714844.8383789L54.0622673 13.5625l-.1074219-.0786133c-.2636719-.1904297-.6201172-.1904297-.8818359 0L52.9646111 13.5625l.0410156-.1264648c.1005859-.309082-.0087891-.6479492-.2724609-.8388672l-.1074219-.078125h.1328125c.3251953 0 .6132813-.2089844.7128906-.5180664l.0419922-.1264648.0410156.1259766c.0996094.309082.3876953.5185547.7128906.5185547h.1337891L54.2927361 12.597168zM31.6618748 45c.109375.3076172.3984394.4995117.7070332.4995117.243885 0 .0344772.0170403 5.6621094-1.9589844.390625-.1381836.5957031-.5668945.4570313-.9575195s-.5693359-.59375-.9570313-.456543l-5.4121094 1.9160156C31.728281 44.1806641 31.5232029 44.609375 31.6618748 45zM26.078867 50.2402344V54.1875c0 .4140625.3359375.75.75.75s.75-.3359375.75-.75v-3.9472656c0-.4140625-.3359375-.75-.75-.75S26.078867 49.8261719 26.078867 50.2402344zM61.1950798 50.2402344c0-2.4287109-1.6142578-4.6318359-4.0175781-5.4819336l-7.4345703-2.6318359c-.3867188-.137207-.8173828.065918-.9570313.456543-.1386719.390625.0664063.8193359.4570313.9575195l7.4345703 2.6318359c1.8046875.6386719 3.0175781 2.2734375 3.0175781 4.0678711V54.1875c0 .4140625.3359375.75.75.75s.75-.3359375.75-.75V50.2402344zM29.6745701 53.7851563l.7919922 15.0908203C30.5232029 69.9267578 31.391367 70.75 32.4431267 70.75H54.487072c1.0537109 0 1.921875-.8237305 1.9765625-1.875l.7929688-15.0898438c.0592003-1.1279144-.8404083-2.0830078-1.9765625-2.0830078H31.6511326C30.5184021 51.7021484 29.615139 52.6528549 29.6745701 53.7851563zM55.7585564 53.7060547l-.7929688 15.090332C54.9519157 69.0507813 54.7419548 69.25 54.487072 69.25H32.4431267c-.2548828 0-.4648457-.199707-.4785175-.4536133l-.7919922-15.090332c-.0143433-.2776451.2067204-.5039063.4785156-.5039063h23.6289082C55.5516968 53.2021484 55.7729034 53.4282837 55.7585564 53.7060547zM38.2653923 38.9155273c.0859375.1791992.25.359375.4580078.472168 1.697422 6.0405388 8.5929794 6.216671 10.4189453.019043.2226563-.109375.3847656-.3139648.4726563-.5048828.4838943-1.0612488.9494362-2.0584679 1.0849609-3.2299805.0458984-.4003906.0527344-.8603516-.2509766-1.2358398-.1083984-.1342773-.2363281-.2324219-.3730469-.3041992.1699219-.9428711.2861328-1.9985352.0546875-3.0703125-.2636719-1.2197266-.9013672-2.0297852-1.9003906-2.4121094-.1474609-.5327148-.5302734-1.0288086-1.0791016-1.3901367-1.8529434-1.2131081-3.7791672-.3965778-4.7880859-.3891602-.6367188-.0019531-1.2382813-.1640625-1.6875-.300293-.5791016-.1757813-1.2958984-.3925781-1.8027344.1796875-.3037109.3442383-.2978516.7558594-.2919922 1.2749023.0034256.4092503.059639.7369976.2587891 1.0927734-1.026001.8441048-1.3256416 2.3466949-1.203125 3.6977539.0244141.2773438.0576172.5537109.0947266.831543.0175781.1328125.0039063.3579102-.3125.7768555C36.6559982 35.4279404 37.7368469 37.7771263 38.2653923 38.9155273zM38.6677361 35.2563477c.4501953-.6191406.6298828-1.2114258.5498047-1.8071289-.120636-.9278145-.216217-1.7486477.1630859-2.6108398.1845703-.4194336.4628906-.6782227.8759766-.8144531.5834732-.1930771.7004204-.9728069.1953125-1.3261719-.4217567-.2970619-.3597412-.5187626-.3720703-.7407227.7267952.2103882 1.345253.4203663 2.2949219.4130859.4707031-.0039063.6884766-.0458984.9628906-.0996094 1.0783958-.208559 2.100956-.3406143 2.9902344.2426758.2636719.1738281.4433594.4003906.4677734.5859375.0419922.347168.3144531.7797852.7333984.8969727.625.1757813.9638672.5888672 1.1347656 1.3818359.269249 1.2429276-.1016312 2.55196-.1845703 3.1118164-.0058594.0424805-.0039063.1723633-.0029297.2148438.0126953.3764648.3027344.6850586.6777344.7216797.0224609.0019531.0439453.0043945.0625.0068359-.0890579.9128189-.4842415 1.7885818-.8662109 2.6259766-.2626953.105957-.5322266.3525391-.6396484.8989258-1.4219589 4.8714638-6.3900032 4.5972633-7.5996094-.1879883-.1113281-.4291992-.3535156-.6235352-.5878906-.7070313-.3808594-.8251953-.7529297-1.6772461-.8642578-2.5654297C38.6530876 35.4428711 38.6530876 35.3779297 38.6677361 35.2563477z" class="color000000 svgShape"/><path fill="#358ff7" d="M38.6784782 65.1494141h9.5742188c.4140625 0 .75-.3359375.75-.75s-.3359375-.75-.75-.75h-9.5742188c-.4140625 0-.75.3359375-.75.75S38.2644157 65.1494141 38.6784782 65.1494141zM46.8337517 46.7695313c.6083107-.7331352.3677635-1.5659256-.5361328-1.8632813-.3958588-.1305923-.4997368-.102623-4.1474609-.0947266-1.2409019.0062981-1.8989334 1.0347023-1.0791016 1.9970703.2724571.3173485.5457611.7014275.9033203 1.0419922.0932388.0885773.033268.1320686-.2529297 2.0004883-.070549.4553146.2821999.8642578.7421875.8642578.3642578 0 .6835938-.2651367.7402344-.6357422.0859375-.5561523.1738281-1.1118164.265625-1.6660156.0517578-.3129883.1728516-1.0463867-.4619141-1.6499023-.1464844-.1391602-.2773438-.2949219-.40625-.453125.8037109-.0029297 1.9042969-.003418 2.6816406-.0009766-.1425781.1787109-.2832031.3447266-.4326172.480957-.6103516.5556641-.5068359 1.2402344-.4619141 1.5336914l.2451172 1.5908203c.0644531.409668.4550781.690918.8554688.6264648.4101563-.0634766.6904297-.4467773.6269531-.855957l-.2451172-1.5878906c-.0205078-.1362305-.0205078-.1870117-.0117188-.1977539C46.2521591 47.5435219 46.5337296 47.1320572 46.8337517 46.7695313zM40.5769157 61.5458984h5.7773438c.9667969 0 1.7529297-.7866211 1.7529297-1.753418v-.5576172c0-.9667969-.7861328-1.753418-1.7529297-1.753418h-5.7773438c-.9667969 0-1.7539063.7866211-1.7539063 1.753418v.5576172C38.8230095 60.7592773 39.6101189 61.5458984 40.5769157 61.5458984zM40.3230095 59.2348633c0-.1396484.1142578-.253418.2539063-.253418h5.7773438c.1396484 0 .2529297.1137695.2529297.253418v.5576172c0 .1396484-.1132813.253418-.2529297.253418h-5.7773438c-.1396484 0-.2539063-.1137695-.2539063-.253418V59.2348633zM17.7702732 34.1855469c-3.7762651 2.5845604-3.9728718 7.142662-.4345703 10.0444336 2.1011486 1.7229156 5.2823334 2.6450348 8.5872192 2.1043091 1.5474854 2.3756714 4.1882935 2.6691284 5.3932495 2.6691284.3583984 0 .5898438-.0253906.6289063-.0302734.6896801-.0832367.9050884-.9844742.3251972-1.3696289-1.2204609-.8103027-1.5740986-2.4282227-1.6782246-3.2749634 1.4577656-1.2061157 2.3029804-2.7697144 2.3754902-4.4535522.1669922-3.8608398-3.7666035-7.1777344-8.7695332-7.3945313C21.8269138 32.3837891 19.5290623 32.9819336 17.7702732 34.1855469zM31.469492 39.8100586c-.0585938 1.3520508-.8076172 2.6269531-2.109375 3.5893555-.194561.1442833-.3151741.4491348-.3017578.6508789.0351563.5527344.203125 2.03125.9912109 3.3266602-1.046875-.2182617-2.3232422-.7875977-3.078125-2.2138672-.1373672-.2583809-.5218163-.4467964-.8222656-.3818359-2.5946007.5618973-5.7380295.0305977-7.8623047-1.7114258-2.7609434-2.2634506-2.6193266-5.627697.3310547-7.6464844 1.4912109-1.0209961 3.4560547-1.5361328 5.515625-1.4438477C28.3093357 34.1601563 31.6003513 36.7758789 31.469492 39.8100586z" class="color000000 svgShape"/><circle cx="19.846" cy="39.634" r="1.102" fill="#358ff7" class="color000000 svgShape"/><path fill="#358ff7" d="M22.7884007,39.6340332c0,0.6084595,0.4932251,1.1017456,1.1017456,1.1017456
		c0.6084595,0,1.1016846-0.4932861,1.1016846-1.1017456s-0.4932251-1.1017456-1.1016846-1.1017456
		C23.2816257,38.5322876,22.7884007,39.0255737,22.7884007,39.6340332z" class="color000000 svgShape"/><circle cx="27.912" cy="39.634" r="1.102" fill="#358ff7" class="color000000 svgShape"/></svg>